<svg width="157" height="15" viewBox="0 0 157 15" fill="none" xmlns="http://www.w3.org/2000/svg">
<path fill-rule="evenodd" clip-rule="evenodd" d="M48.698 0.0842246C48.585 0.128553 48.4925 0.3022 48.4925 0.470266C48.4925 0.812616 48.236 0.883574 48.1076 0.576622C48.0415 0.418443 47.9945 0.418124 47.8801 0.574709C47.7658 0.730975 47.6246 0.731453 47.2024 0.576941C46.7562 0.413499 46.6436 0.420356 46.5122 0.618719C46.4126 0.769085 46.3101 0.79683 46.2319 0.69446C46.164 0.605802 45.7573 0.513159 45.3277 0.488762C44.7143 0.453841 44.5467 0.496894 44.5467 0.689835C44.5467 0.82601 44.4055 0.935397 44.2296 0.935397C44.0553 0.935397 43.8016 1.04303 43.666 1.17458C43.5304 1.30613 43.3032 1.41376 43.161 1.41376C43.0189 1.41376 42.9027 1.48073 42.9027 1.56253C42.9027 1.64434 42.7547 1.75675 42.5739 1.8124C42.3891 1.86933 42.2451 2.05366 42.2451 2.2332C42.2451 2.71412 41.8439 3.00832 41.1881 3.00832C40.8052 3.00832 40.601 3.0831 40.601 3.22326C40.601 3.34158 40.3051 3.56769 39.9434 3.72587C39.5817 3.88405 39.2858 4.10425 39.2858 4.21523C39.2858 4.32606 39.1934 4.4533 39.0803 4.49779C38.9229 4.55966 38.9297 4.61563 39.1085 4.73665C39.2879 4.858 39.1828 4.93629 38.6564 5.0739C38.2791 5.17245 37.9705 5.31324 37.9705 5.38691C37.9705 5.46058 37.7486 5.61015 37.4773 5.71906C36.9606 5.92667 36.7786 6.56704 37.1896 6.73144C37.3027 6.77673 37.1725 6.7772 36.9004 6.73256C36.565 6.67739 36.2923 6.74499 36.0527 6.94256C35.8584 7.10281 35.5447 7.33944 35.3553 7.46844C35.1661 7.59744 35.0112 7.78991 35.0112 7.8961C35.0112 8.00246 34.8536 8.138 34.6607 8.19731C34.4028 8.27672 34.3664 8.33891 34.5229 8.43283C34.6923 8.53424 34.6822 8.61222 34.4743 8.81393C34.1474 9.13092 34.0248 9.13491 34.0248 8.82844C34.0248 8.69689 33.9853 8.58925 33.9372 8.58925C33.7647 8.58925 32.7095 9.69843 32.7095 9.87957C32.7095 9.99964 32.5372 10.0307 32.2163 9.96854C31.8466 9.89679 31.7231 9.93171 31.7231 10.1081C31.7231 10.2374 31.6491 10.3433 31.5587 10.3433C31.4683 10.3433 31.3943 10.2792 31.3943 10.2009C31.3943 9.97827 30.8578 9.83428 30.7367 10.0244C30.5927 10.2505 30.0791 10.0503 30.0791 9.76811C30.0791 9.64597 29.939 9.54599 29.7677 9.54599C29.5964 9.54599 29.2149 9.32737 28.92 9.06013C28.6251 8.79288 28.2788 8.61333 28.1506 8.66101C27.8448 8.7747 27.4486 8.38053 27.4486 7.96275C27.4486 7.78113 27.3746 7.63252 27.2842 7.63252C27.1937 7.63252 27.1198 7.38138 27.1198 7.07443C27.1198 6.76748 27.0458 6.51633 26.9554 6.51633C26.8649 6.51633 26.7909 6.58809 26.7909 6.67579C26.7909 6.76349 26.717 6.83525 26.6265 6.83525C26.5361 6.83525 26.4621 6.65076 26.4621 6.42529C26.4621 5.96382 26.1221 5.5596 25.734 5.5596C25.5854 5.5596 25.4757 5.42438 25.4757 5.24069C25.4757 5.06529 25.4017 4.92178 25.3113 4.92178C25.2209 4.92178 25.1469 4.79406 25.1469 4.63811C25.1469 4.482 24.9989 4.25095 24.8181 4.1245C24.6372 3.99806 24.4893 3.80767 24.4893 3.70147C24.4893 3.59511 24.3413 3.4626 24.1605 3.40696C23.9796 3.35131 23.8317 3.20477 23.8317 3.08135C23.8317 2.91854 23.6848 2.87804 23.2973 2.93417C23.0035 2.97659 22.8556 2.96893 22.9685 2.91679C23.0816 2.86481 23.174 2.68 23.174 2.50587C23.174 2.26207 23.0986 2.21279 22.8452 2.29077C22.6567 2.34881 22.5164 2.31947 22.5164 2.22172C22.5164 2.12812 22.5904 2.05158 22.6808 2.05158C23.0831 2.05158 22.804 1.55727 22.352 1.46957C22.0807 1.41695 21.8588 1.28014 21.8588 1.16533C21.8588 1.05068 21.7108 0.911319 21.53 0.855669C21.3491 0.800019 21.2012 0.695257 21.2012 0.622865C21.2012 0.550472 21.0848 0.447783 20.9424 0.394843C20.6728 0.294546 20.2147 0.627648 20.2147 0.924076C20.2147 1.21508 19.6424 1.11191 19.3927 0.775942C19.2623 0.600541 19.0355 0.457031 18.8883 0.457031C18.5584 0.457031 17.9131 0.981798 17.9131 1.25016C17.9131 1.37581 17.8082 1.40611 17.6254 1.3334C17.2135 1.16948 17.0902 1.16756 16.3101 1.31219C15.9259 1.38347 15.6114 1.51677 15.6114 1.60846C15.6114 1.82245 15.0057 2.33302 14.6054 2.45628C14.4354 2.50858 14.2961 2.64556 14.2961 2.76052C14.2961 2.87549 14.0742 3.05886 13.8029 3.16777C13.5317 3.27668 13.3097 3.45894 13.3097 3.57247C13.3097 3.686 13.2173 3.81516 13.1042 3.85949C12.9398 3.92375 12.9398 3.94241 13.1042 3.95245C13.2173 3.95931 13.3097 4.02756 13.3097 4.10393C13.3097 4.24824 11.8005 4.52713 11.2957 4.47626C11.06 4.45234 11.008 4.57656 11.008 5.16288C11.008 5.55641 10.9341 5.87851 10.8436 5.87851C10.7532 5.87851 10.6792 5.80676 10.6792 5.71906C10.6792 5.48306 10.2722 5.52484 9.61618 5.82828C9.28605 5.98104 9.03517 6.21465 9.03517 6.36932C9.03517 6.69429 8.70028 6.84561 8.23961 6.72873C8.05581 6.68217 7.79835 6.73176 7.66715 6.83891C6.38446 7.88829 6.19835 8.15187 6.61019 8.33524C6.7233 8.38563 6.64915 8.38675 6.44578 8.33779C6.1344 8.26301 6.07587 8.31356 6.07587 8.6583C6.07587 8.88345 6.00189 9.06762 5.91147 9.06762C5.82104 9.06762 5.74706 8.95999 5.74706 8.82844C5.74706 8.69689 5.67308 8.58925 5.58266 8.58925C5.49223 8.58925 5.41825 8.76864 5.41825 8.98789C5.41825 9.20714 5.34427 9.38653 5.25385 9.38653C5.16342 9.38653 5.08944 9.31478 5.08944 9.22708C5.08944 8.99363 4.82031 9.03254 4.53753 9.3068C4.4019 9.43835 4.19096 9.54599 4.06881 9.54599C3.94666 9.54599 3.74016 9.6895 3.60979 9.8649C3.47942 10.0403 3.22262 10.1921 3.03914 10.2023C2.72315 10.2198 2.72233 10.2249 3.0227 10.2993C3.3405 10.3777 3.7742 10.7188 3.7742 10.89C3.7742 10.9401 3.62623 10.9811 3.44539 10.9811C3.26454 10.9811 3.11658 10.9093 3.11658 10.8216C3.11658 10.7339 2.96861 10.6622 2.78776 10.6622C2.60511 10.6622 2.45895 10.7685 2.45895 10.9014C2.45895 11.1771 2.31526 11.2002 1.96574 10.9811C1.80133 10.8781 1.78769 10.8258 1.92464 10.824C2.03775 10.8227 2.13014 10.714 2.13014 10.5824C2.13014 10.4496 1.98399 10.3433 1.80133 10.3433C1.62049 10.3433 1.47252 10.4198 1.47252 10.5134C1.47252 10.6111 1.33228 10.6405 1.14371 10.5824C0.955138 10.5244 0.8149 10.5537 0.8149 10.6515C0.8149 10.7451 0.666935 10.8216 0.486089 10.8216C0.271705 10.8216 0.157279 10.928 0.157279 11.1273C0.157279 11.2954 0.101874 11.463 0.0339747 11.4998C-0.0339248 11.5365 0.00323101 11.5448 0.116178 11.518C0.796816 11.3571 1.07466 12.0864 0.444988 12.3811L0.0750761 12.5541L0.444988 12.5648C0.648358 12.5709 0.8149 12.657 0.8149 12.7563C0.8149 12.9821 1.40939 13.4914 1.8209 13.6182C1.99089 13.6705 2.13014 13.816 2.13014 13.9417C2.13014 14.204 2.51041 14.24 2.93754 14.0184C3.09849 13.9348 3.59286 13.8355 4.03642 13.7977C5.13728 13.7036 5.41825 13.5652 5.41825 13.1167C5.41825 12.9068 5.49223 12.7351 5.58266 12.7351C5.67308 12.7351 5.74706 12.6275 5.74706 12.4959C5.74706 12.3644 5.67308 12.2567 5.58266 12.2567C5.49223 12.2567 5.41825 12.1414 5.41825 12.0005C5.41825 11.8323 5.50769 11.7776 5.67834 11.841C5.82137 11.8943 5.96934 11.9378 6.00715 11.9378C6.04496 11.9378 6.07587 12.0376 6.07587 12.1596C6.07587 12.2969 6.30933 12.4077 6.68927 12.4508C7.61454 12.5555 8.70636 12.1022 8.70636 11.6132C8.70636 11.5098 8.81815 11.4669 8.95494 11.5178C9.22308 11.6176 10.0216 11.326 10.0216 11.1283C10.0216 11.0619 9.92921 10.9664 9.8161 10.9162C9.70315 10.8658 9.77713 10.8647 9.9805 10.9136C10.2912 10.9883 10.3504 10.9377 10.3504 10.5971C10.3504 10.2318 10.3991 10.2012 10.8436 10.2875C11.2278 10.3619 11.3368 10.3265 11.3368 10.127C11.3368 9.98098 11.5302 9.82392 11.7873 9.76125C12.2549 9.64756 12.8152 9.22708 12.4994 9.22708C12.4025 9.22708 12.3233 9.04769 12.3233 8.82844C12.3233 8.43315 12.5712 8.27433 12.6827 8.59834C12.7146 8.69115 12.8686 8.71937 13.0251 8.66101C13.2499 8.57745 13.3097 8.35996 13.3097 7.62614C13.3097 6.83732 13.3594 6.68201 13.6385 6.59606C14.0638 6.46515 14.0638 6.19742 13.6385 6.19742C13.4559 6.19742 13.3097 6.09107 13.3097 5.95824C13.3097 5.82669 13.3837 5.71906 13.4741 5.71906C13.5645 5.71906 13.6385 5.79081 13.6385 5.87851C13.6385 5.96621 13.7865 6.03797 13.9673 6.03797C14.2246 6.03797 14.2961 6.14433 14.2961 6.52702C14.2961 6.9196 14.3529 6.99901 14.5839 6.92932C14.9352 6.82329 15.4772 7.13422 15.1593 7.25924C14.9153 7.35539 14.8816 7.79198 15.1182 7.79198C15.2086 7.79198 15.2826 7.72022 15.2826 7.63252C15.2826 7.54482 15.4305 7.47307 15.6114 7.47307C15.8268 7.47307 15.9402 7.36671 15.9402 7.16484C15.9402 6.99534 16.0882 6.81117 16.269 6.75552C16.4499 6.69987 16.5978 6.55157 16.5978 6.42592C16.5978 6.30027 16.6718 6.19742 16.7622 6.19742C16.8526 6.19742 16.9266 6.08979 16.9266 5.95824C16.9266 5.82669 17.0006 5.71906 17.091 5.71906C17.1815 5.71906 17.2554 5.53967 17.2554 5.32042C17.2554 5.10117 17.3294 4.92178 17.4198 4.92178C17.5103 4.92178 17.5842 4.99354 17.5842 5.08124C17.5842 5.16894 17.6582 5.24069 17.7487 5.24069C17.8391 5.24069 17.9131 5.08937 17.9131 4.9044C17.9131 4.60159 17.9747 4.57943 18.5296 4.68228C18.8687 4.7451 19.5346 4.79533 20.0092 4.7939C20.4839 4.79246 20.8724 4.86167 20.8724 4.94777C20.8724 5.18951 21.3128 5.5596 21.6005 5.5596C21.7426 5.5596 21.8588 5.68733 21.8588 5.84327C21.8588 5.99938 22.0068 6.23043 22.1876 6.35688C22.6764 6.69859 22.5863 6.88675 21.9821 6.78629C21.6883 6.73734 21.5403 6.73431 21.6533 6.7796C21.7664 6.82488 21.8588 6.99167 21.8588 7.15033C21.8588 7.30915 21.9698 7.48024 22.1054 7.53079C22.398 7.6397 22.8452 7.4981 22.8452 7.29655C22.8452 7.21826 22.9192 7.15416 23.0096 7.15416C23.2462 7.15416 23.2125 7.5909 22.9685 7.68642C22.8556 7.73059 22.9294 7.77252 23.1329 7.77938C23.4093 7.78879 23.5028 7.88797 23.5028 8.17132C23.5028 8.44415 23.6442 8.60743 24.0071 8.75317C24.3757 8.90131 24.4531 8.99236 24.2948 9.09138C24.1192 9.2014 24.1248 9.25945 24.3249 9.39865C24.5105 9.52781 24.5207 9.59031 24.366 9.65107C24.0478 9.7764 24.1233 10.1508 24.4893 10.2635C24.6701 10.3192 24.8181 10.4944 24.8181 10.6529C24.8181 10.8457 24.9815 10.973 25.3113 11.0369C25.7905 11.1299 26.012 11.4571 25.599 11.4618C25.4598 11.4636 25.4729 11.5188 25.6401 11.6334C25.8257 11.7608 25.8359 11.8227 25.6812 11.8834C25.2906 12.0373 25.4788 12.2 26.2977 12.4162C27.0313 12.6099 27.1198 12.6806 27.1198 13.073C27.1198 13.471 27.189 13.523 27.8479 13.6188C28.2484 13.677 28.6573 13.6759 28.7567 13.6164C28.856 13.5568 29.1467 13.7255 29.4025 13.9911C29.8126 14.4169 29.9919 14.4797 30.9187 14.5215C31.4967 14.5475 32.0608 14.6521 32.1721 14.7538C32.2836 14.8555 32.6905 14.9421 33.0763 14.9461C33.4624 14.9501 33.8892 14.973 34.0248 14.997C34.1604 15.0209 34.7339 14.9007 35.2989 14.7296C36.0539 14.5009 36.3265 14.3432 36.3265 14.1348C36.3265 13.9576 36.4498 13.8513 36.6553 13.8513C36.8379 13.8513 36.9841 13.7449 36.9841 13.6121C36.9841 13.4805 37.0581 13.3729 37.1485 13.3729C37.2389 13.3729 37.3129 13.2294 37.3129 13.054C37.3129 12.8786 37.3869 12.7351 37.4773 12.7351C37.5677 12.7351 37.6417 12.8427 37.6417 12.9743C37.6417 13.1058 37.684 13.2135 37.7356 13.2135C37.9493 13.2135 38.2993 12.736 38.2993 12.4446C38.2993 12.0931 38.7894 11.8343 38.9569 12.0973C39.1375 12.3806 39.6146 12.0887 39.6146 11.6948C39.6146 11.4923 39.5592 11.2965 39.4913 11.2597C39.4234 11.223 39.4613 11.215 39.5754 11.2421C39.9304 11.3265 40.601 10.9436 40.601 10.6564C40.601 10.4828 40.7738 10.3496 41.0751 10.2911C41.3359 10.2406 41.9327 9.83699 42.4012 9.39419C42.87 8.95154 43.3224 8.58925 43.4069 8.58925C43.4912 8.58925 43.5603 8.48641 43.5603 8.36075C43.5603 8.2351 43.7083 8.08681 43.8891 8.03116C44.07 7.97551 44.2179 7.86788 44.2179 7.79198C44.2179 7.71608 44.3659 7.60844 44.5467 7.55279C44.7276 7.49715 44.8755 7.31297 44.8755 7.14347C44.8755 6.90732 44.991 6.83525 45.3688 6.83525C45.64 6.83525 45.862 6.76349 45.862 6.67579C45.862 6.58809 46.0099 6.51633 46.1908 6.51633C46.3716 6.51633 46.5196 6.41349 46.5196 6.28784C46.5196 6.16218 46.6676 6.01389 46.8484 5.95824C47.0293 5.90259 47.1772 5.79017 47.1772 5.70837C47.1772 5.62657 47.2935 5.5596 47.4355 5.5596C47.7308 5.5596 48.1637 5.18727 48.1637 4.9331C48.1637 4.83918 48.2376 4.76233 48.3281 4.76233C48.4185 4.76233 48.4925 4.82579 48.4925 4.90313C48.4925 5.10468 49.3766 5.24181 49.4934 5.05843C49.6042 4.88463 50.4653 5.20992 50.4653 5.42582C50.4653 5.49933 50.5728 5.5596 50.7042 5.5596C51.1654 5.5596 51.7806 5.93257 51.7806 6.21225C51.7806 6.36772 51.9285 6.54041 52.1094 6.59606C52.2902 6.65171 52.4382 6.78215 52.4382 6.88579C52.4382 7.00188 52.7353 7.08065 53.2109 7.09053C53.6359 7.0993 54.012 7.18892 54.0467 7.28985C54.0813 7.39063 54.2049 7.47307 54.3211 7.47307C54.8189 7.47307 56.6146 8.13624 56.86 8.41082C57.0562 8.62992 57.3016 8.69689 57.7753 8.66053C58.222 8.62609 58.3487 8.6567 58.1842 8.75939C57.9768 8.88871 57.978 8.92858 58.1924 9.06395C58.328 9.14974 58.5685 9.18068 58.7267 9.133C58.8849 9.08516 59.0144 9.11785 59.0144 9.20555C59.0144 9.29325 58.8663 9.41061 58.6851 9.46642C58.3921 9.55667 58.3831 9.59414 58.6029 9.80749C58.8227 10.0207 58.8784 10.0196 59.1083 9.79649C59.3988 9.51489 59.6179 9.47551 59.6995 9.69045C59.7845 9.91465 61.6449 10.099 61.6449 9.88324C61.6449 9.78549 61.7189 9.70544 61.8093 9.70544C61.8997 9.70544 61.9737 9.84895 61.9737 10.0244C61.9737 10.1998 62.0477 10.3433 62.1381 10.3433C62.2285 10.3433 62.3025 10.1758 62.3025 9.97126C62.3025 9.66414 62.3887 9.59908 62.7957 9.59908C63.2079 9.59908 63.2889 9.66255 63.2889 9.98529C63.2889 10.3473 63.3299 10.3646 63.9466 10.2635C64.379 10.1927 64.6042 10.2152 64.6042 10.3292C64.6042 10.4246 64.6782 10.5027 64.7686 10.5027C64.859 10.5027 64.933 10.364 64.933 10.1945C64.933 10.025 65.0626 9.85134 65.2207 9.80861C65.3789 9.76572 65.6934 9.68041 65.9194 9.61886L66.3304 9.50692L65.9426 9.83938C65.5707 10.158 65.5668 10.1835 65.8471 10.4554C66.0562 10.6582 66.159 10.6826 66.2076 10.5411C66.2451 10.4322 66.4113 10.3433 66.5771 10.3433C66.7428 10.3433 66.9161 10.2536 66.9619 10.1439C67.0279 9.98592 67.0762 9.98704 67.1942 10.1494C67.2761 10.2619 67.4482 10.3275 67.5766 10.2951C67.705 10.2626 67.7547 10.2662 67.6868 10.3029C67.4415 10.4359 67.5709 10.6622 67.8923 10.6622C68.0749 10.6622 68.2211 10.5558 68.2211 10.423C68.2211 10.2914 68.2951 10.1838 68.3855 10.1838C68.4759 10.1838 68.5499 10.2556 68.5499 10.3433C68.5499 10.431 68.6239 10.5027 68.7143 10.5027C68.8047 10.5027 68.8787 10.4027 68.8787 10.2806C68.8787 10.1585 68.9958 10.0149 69.1388 9.96169C69.5063 9.82487 69.5363 9.83572 69.5363 10.1041C69.5363 10.2356 69.6103 10.3433 69.7008 10.3433C69.7912 10.3433 69.8652 10.2356 69.8652 10.1041C69.8652 9.97253 70.0079 9.8649 70.1823 9.8649C70.3566 9.8649 70.6102 9.75727 70.7459 9.62571C71.0107 9.36883 71.7752 9.29851 71.8655 9.52255C71.9372 9.70066 73.8109 9.36261 73.8109 9.17158C73.8109 8.88233 74.5282 8.4298 74.9869 8.4298C75.2443 8.4298 75.4549 8.35804 75.4549 8.27034C75.4549 8.18264 75.6029 8.11089 75.7838 8.11089C75.9646 8.11089 76.1126 8.05109 76.1126 7.97806C76.1126 7.90487 76.332 7.84508 76.6003 7.84508C77.3426 7.84508 78.4142 7.32206 78.4142 6.95978C78.4142 6.72682 78.4923 6.67834 78.743 6.75552C78.9239 6.81117 79.0719 6.78884 79.0719 6.70593C79.0719 6.45734 80.0065 6.15995 80.4034 6.28209L80.7728 6.39595L80.3744 6.60993C79.9864 6.81834 79.9853 6.82408 80.3343 6.82966C80.5313 6.83269 80.8034 6.72761 80.939 6.59606C81.0746 6.46451 81.3426 6.35688 81.5343 6.35688C81.922 6.35688 82.7971 6.75807 83.1447 7.09516C83.2685 7.21523 83.4386 7.31361 83.5225 7.31361C83.6065 7.31361 83.6752 7.39238 83.6752 7.48885C83.6752 7.69296 84.6268 8.58925 84.8435 8.58925C84.9244 8.58925 84.9905 8.73787 84.9905 8.91949C84.9905 9.31095 85.3559 9.70544 85.7186 9.70544C85.8607 9.70544 85.9769 9.7772 85.9769 9.8649C85.9769 9.9526 86.0862 10.0244 86.2199 10.0244C86.5733 10.0244 88.2786 10.8618 88.2786 11.0355C88.2786 11.2721 88.96 11.7784 89.2785 11.7784C89.4389 11.7784 89.677 11.8818 89.8074 12.0083C90.0647 12.2578 91.3668 12.35 92.101 12.1706C92.4045 12.0965 92.5531 12.1225 92.5531 12.2496C92.5531 12.616 92.9717 12.8265 93.7039 12.8284C94.1108 12.8295 94.4992 12.755 94.5671 12.6632C94.6498 12.5511 94.731 12.5492 94.8137 12.6573C94.8816 12.7459 95.1589 12.8223 95.4302 12.8268C95.7015 12.8314 96.2009 12.8923 96.5399 12.9623C96.9787 13.0529 97.1565 13.0352 97.1565 12.9009C97.1565 12.7971 97.2742 12.5981 97.418 12.4586C97.6403 12.2432 97.702 12.2389 97.829 12.4302C97.9566 12.6224 98.0025 12.6204 98.1429 12.4162C98.2734 12.2263 98.3354 12.2193 98.4437 12.3817C98.5189 12.4943 98.7037 12.5406 98.8548 12.4843C99.041 12.4149 99.1293 12.4645 99.1293 12.6383C99.1293 12.8167 99.2791 12.8945 99.6225 12.8945C99.8938 12.8945 100.116 12.8228 100.116 12.7351C100.116 12.6474 100.232 12.5756 100.374 12.5756C100.706 12.5756 101.102 12.1917 101.102 11.8694C101.102 11.5534 101.335 11.5486 101.654 11.8581C101.966 12.1609 102.089 12.1609 102.089 11.8581C102.089 11.6986 102.253 11.6189 102.582 11.6189C102.853 11.6189 103.075 11.5472 103.075 11.4595C103.075 11.3717 103.297 11.3 103.568 11.3C103.88 11.3 104.061 11.2184 104.061 11.0779C104.061 10.8328 104.407 10.6622 104.904 10.6622C105.082 10.6622 105.42 10.4756 105.655 10.2474C106.004 9.90891 106.04 9.8043 105.853 9.67722C105.676 9.55747 105.671 9.50309 105.829 9.44091C105.942 9.39642 106.034 9.22245 106.034 9.05439C106.034 8.88632 106.108 8.74871 106.199 8.74871C106.289 8.74871 106.363 8.96397 106.363 9.22708C106.363 9.59909 106.436 9.70544 106.692 9.70544C106.873 9.70544 107.021 9.60259 107.021 9.47694C107.021 9.35129 107.169 9.203 107.35 9.14735C107.554 9.08436 107.678 8.90609 107.678 8.67536C107.678 8.29378 107.953 8.11089 108.526 8.11089C108.706 8.11089 108.964 8.00326 109.099 7.87171C109.235 7.74015 109.433 7.63364 109.54 7.63491C109.655 7.63635 109.636 7.6971 109.492 7.78544C109.289 7.90997 109.309 7.98205 109.615 8.24021C109.816 8.40891 109.98 8.70486 109.98 8.8978C109.98 9.17605 110.048 9.22755 110.309 9.14735C110.595 9.05933 110.638 9.11865 110.638 9.60419C110.638 10.0223 110.72 10.1878 110.967 10.2635C111.147 10.3192 111.295 10.4394 111.295 10.5305C111.295 10.6217 111.406 10.655 111.542 10.6045C111.861 10.4857 112.282 10.644 112.282 10.8832C112.282 10.986 112.437 11.1756 112.626 11.3046C113.286 11.7544 113.597 12.0563 113.597 12.247C113.597 12.7565 114.79 13.1693 114.947 12.714C114.99 12.5895 115.173 12.6158 115.537 12.7986C115.93 12.9955 116.148 13.0213 116.383 12.8993C116.783 12.6912 116.885 12.6927 116.885 12.9059C116.885 13.2168 117.33 13.5148 117.666 13.4295C117.849 13.3833 118.238 13.466 118.532 13.6134C118.867 13.7813 119.104 13.8218 119.168 13.7218C119.224 13.6341 119.955 13.5592 120.794 13.5552C121.943 13.5499 122.38 13.4876 122.572 13.3013C122.712 13.1656 123.025 13.0074 123.267 12.95C123.51 12.8925 123.749 12.7856 123.799 12.7125C123.848 12.6393 124.138 12.6683 124.441 12.7769C124.881 12.9344 125.007 12.9339 125.063 12.775C125.101 12.6654 125.367 12.5699 125.653 12.563C125.94 12.5562 126.082 12.5142 125.968 12.4701C125.856 12.4257 125.763 12.2572 125.763 12.0955C125.763 11.8382 125.878 11.8082 126.69 11.8557C127.199 11.8855 127.664 11.9849 127.723 12.0765C127.935 12.4093 130.038 12.0311 130.038 11.66C130.038 11.488 130.16 11.4449 130.479 11.5041C131.028 11.6058 131.353 11.4939 131.353 11.2032C131.353 11.0627 131.534 10.9811 131.846 10.9811C132.117 10.9811 132.339 11.0528 132.339 11.1405C132.339 11.2282 132.561 11.3 132.832 11.3C133.216 11.3 133.326 11.2292 133.326 10.9811C133.326 10.75 133.435 10.6622 133.723 10.6622C133.942 10.6622 134.238 10.6186 134.381 10.5654C134.567 10.496 134.641 10.5638 134.641 10.8046C134.641 11.2131 134.85 11.2338 135.232 10.8629C135.438 10.6633 135.538 10.641 135.587 10.7832C135.673 11.0355 137.271 11.0559 137.271 10.8046C137.271 10.7075 137.378 10.6678 137.509 10.7164C137.639 10.7649 137.98 10.7395 138.266 10.6598C138.664 10.5493 138.846 10.5724 139.037 10.7572C139.181 10.897 139.399 10.9532 139.553 10.89C139.7 10.8299 139.986 10.7456 140.19 10.7028C140.393 10.6599 140.559 10.5257 140.559 10.4043C140.559 10.2831 140.707 10.1838 140.888 10.1838C141.069 10.1838 141.217 10.2556 141.217 10.3433C141.217 10.431 141.131 10.5027 141.025 10.5027C140.92 10.5027 140.868 10.5367 140.911 10.5781C141.027 10.6907 142.204 10.3484 142.204 10.202C142.204 10.1325 142.397 9.99023 142.632 9.8861C143.005 9.72139 143.101 9.741 143.363 10.0346C143.53 10.2205 143.739 10.3288 143.828 10.2753C143.917 10.2218 144.31 10.286 144.7 10.4177C145.09 10.5496 145.645 10.6585 145.932 10.6598C146.219 10.6611 146.566 10.7698 146.701 10.9014C146.98 11.1723 147.41 11.2179 147.492 10.9855C147.525 10.8923 147.823 10.9229 148.24 11.0624C148.62 11.19 149.064 11.2531 149.226 11.2024C149.466 11.1271 149.476 11.1404 149.278 11.2762C148.937 11.5098 149.095 11.5996 149.938 11.6513C150.413 11.6805 150.775 11.8069 150.967 12.0112C151.191 12.2481 151.296 12.2768 151.391 12.1266C151.523 11.9203 152.068 12.0301 152.068 12.2631C152.068 12.3355 152.216 12.4403 152.397 12.4959C152.577 12.5516 152.725 12.6912 152.725 12.8062C152.725 12.9212 152.946 13.1038 153.215 13.2119C153.484 13.3198 153.865 13.5438 154.062 13.7095C154.457 14.042 154.698 14.0957 154.698 13.8513C154.698 13.7636 154.772 13.6918 154.863 13.6918C154.953 13.6918 155.027 13.7995 155.027 13.931C155.027 14.097 155.199 14.1702 155.589 14.1702C156.303 14.1702 156.671 14.0334 156.671 13.7677C156.671 13.6529 156.764 13.5171 156.877 13.4659C157.041 13.3916 157.041 13.3543 156.877 13.28C156.764 13.2288 156.671 12.9417 156.671 12.6421C156.671 12.3424 156.597 12.0973 156.507 12.0973C156.27 12.0973 156.304 11.6605 156.548 11.565C156.661 11.5208 156.587 11.4789 156.383 11.472C156.17 11.4647 156.014 11.3582 156.014 11.2203C156.014 11.0887 155.94 10.9811 155.849 10.9811C155.759 10.9811 155.685 10.8376 155.685 10.6622C155.685 10.4868 155.611 10.3433 155.52 10.3433C155.43 10.3433 155.356 10.1687 155.356 9.95531C155.356 9.70752 155.237 9.531 155.027 9.46626C154.846 9.41061 154.698 9.28863 154.698 9.19519C154.698 9.10174 154.532 8.88457 154.328 8.71267C154.052 8.47955 153.802 8.42023 153.342 8.47955C152.778 8.5521 152.725 8.52643 152.725 8.17547C152.725 7.96451 152.818 7.78975 152.931 7.78719C153.044 7.78448 152.998 7.70444 152.829 7.60908C152.66 7.51389 152.475 7.4981 152.418 7.57416C152.236 7.81717 151.224 7.79341 150.962 7.53988C150.825 7.40673 150.5 7.25669 150.24 7.20614C149.979 7.15559 149.766 7.05147 149.766 6.97477C149.766 6.89807 149.618 6.83525 149.437 6.83525C149.123 6.83525 148.973 7.21363 149.232 7.35395C149.3 7.39063 149.257 7.39669 149.136 7.36719C149.016 7.33769 148.812 7.31361 148.684 7.31361C148.543 7.31361 148.451 7.15129 148.451 6.90429C148.451 6.56736 148.393 6.51283 148.122 6.59606C147.925 6.65682 147.793 6.62476 147.793 6.5157C147.793 6.32802 147.396 5.87851 147.23 5.87851C147.178 5.87851 147.136 5.98615 147.136 6.1177C147.136 6.24925 147.062 6.35688 146.971 6.35688C146.881 6.35688 146.807 6.19152 146.807 5.98949C146.807 5.65831 146.738 5.6253 146.108 5.6548C145.083 5.70279 145.058 5.70997 145.327 5.87724C145.463 5.96175 145.703 5.99157 145.862 5.94389C146.02 5.89605 146.149 5.93368 146.149 6.02729C146.149 6.12089 145.86 6.19742 145.505 6.19742C145.139 6.19742 144.832 6.28273 144.793 6.39531C144.745 6.53579 144.638 6.50836 144.424 6.30107C144.172 6.05663 144.161 5.98583 144.355 5.86655C144.519 5.76578 144.527 5.7232 144.382 5.72145C144.269 5.72017 144.176 5.61908 144.176 5.49694C144.176 5.25584 143.818 5.07374 143.382 5.09383C143.211 5.10165 143.185 5.13673 143.313 5.1868C143.557 5.28215 143.592 5.87851 143.354 5.87851C143.264 5.87851 143.19 5.76179 143.19 5.61908C143.19 5.40381 143.05 5.37256 142.368 5.43618C141.72 5.49662 141.546 5.46345 141.546 5.27928C141.546 5.09575 141.414 5.06976 140.93 5.15778C140.591 5.21948 140.277 5.3201 140.231 5.38133C140.186 5.44256 139.682 5.49981 139.112 5.50858C138.021 5.52516 137.699 5.64204 138.093 5.87851C138.224 5.95665 138.281 6.0689 138.22 6.12806C138.051 6.2915 137.6 5.78316 137.6 5.42997C137.6 5.15953 137.485 5.11855 136.737 5.1219C136.262 5.12397 135.966 5.15762 136.079 5.19652C136.192 5.23543 136.285 5.32552 136.285 5.39664C136.285 5.59644 135.408 5.5065 135.164 5.28151C134.912 5.04982 134.641 5.01825 134.641 5.22076C134.641 5.29746 134.419 5.40334 134.148 5.45596C133.73 5.53696 133.654 5.62562 133.654 6.03398C133.654 6.57709 133.575 6.62158 133.22 6.27715C133.084 6.1456 132.905 6.03797 132.821 6.03797C132.737 6.03797 132.668 6.1456 132.668 6.27715C132.668 6.60994 132.456 6.57565 132.175 6.19742C131.903 5.831 130.972 5.76004 130.607 6.07783C129.921 6.67436 129.837 6.71821 129.724 6.54041C129.644 6.41476 129.445 6.40679 129.06 6.51378C128.758 6.59782 128.441 6.62429 128.355 6.57278C128.134 6.44027 125.763 6.86857 125.763 7.0411C125.763 7.11939 125.338 7.16835 124.818 7.14985C123.539 7.10425 123.461 7.11812 123.461 7.39334C123.461 7.52489 123.387 7.63252 123.297 7.63252C123.206 7.63252 123.132 7.51724 123.132 7.37628C123.132 7.20805 123.043 7.15336 122.872 7.21682C122.729 7.27008 122.581 7.31361 122.544 7.31361C122.506 7.31361 122.475 7.42603 122.475 7.56348C122.475 7.74095 122.379 7.784 122.146 7.71225C121.876 7.62901 121.817 7.68355 121.817 8.02048C121.817 8.24563 121.743 8.4298 121.653 8.4298C121.562 8.4298 121.488 8.31738 121.488 8.17993C121.488 8.00246 121.393 7.95941 121.16 8.03116C120.926 8.10292 120.831 8.05986 120.831 7.88239C120.831 7.74494 120.796 7.63252 120.754 7.63252C120.545 7.63252 119.516 8.18695 119.516 8.29984C119.516 8.37128 119.442 8.4298 119.351 8.4298C119.261 8.4298 119.187 8.25041 119.187 8.03116C119.187 7.552 119.013 7.52154 118.698 7.94537C118.527 8.17563 118.41 8.21358 118.255 8.08904C118.105 7.9677 117.976 7.98061 117.8 8.13497C117.017 8.82046 116.885 8.87707 116.885 8.52659C116.885 8.25615 116.339 8.0251 116.258 8.26126C116.181 8.48561 115.57 8.47859 115.57 8.25328C115.57 8.14884 115.452 8.12253 115.282 8.18886C115.124 8.25057 114.902 8.33763 114.789 8.38244C114.638 8.4424 114.583 8.20545 114.583 7.48614C114.583 6.52734 114.574 6.50645 114.09 6.41269C113.643 6.32594 113.597 6.25849 113.597 5.69514C113.597 5.12812 113.552 5.06465 113.09 4.97504C112.716 4.90249 112.641 4.83775 112.803 4.72772C112.974 4.611 112.977 4.56109 112.816 4.49779C112.703 4.4533 112.611 4.31521 112.611 4.191C112.611 4.06678 112.537 3.96505 112.446 3.96505C112.356 3.96505 112.282 3.85742 112.282 3.72587C112.282 3.59432 112.208 3.48668 112.117 3.48668C112.027 3.48668 111.953 3.38798 111.953 3.26743C111.953 3.14688 111.731 3.00513 111.46 2.95251C111.17 2.89638 110.967 2.75622 110.967 2.61367C110.967 2.47685 110.823 2.3705 110.638 2.3705C110.448 2.3705 110.309 2.26414 110.309 2.11999C110.309 1.98206 110.196 1.75962 110.057 1.62552C109.753 1.33053 108.994 1.46622 108.994 1.81543C108.994 2.1219 108.43 2.11999 108.113 1.8124C107.801 1.50944 107.021 1.49556 107.021 1.79311C107.021 1.91397 106.799 2.10213 106.528 2.21104C106.256 2.31995 106.034 2.50811 106.034 2.62897C106.034 2.75 105.886 2.84886 105.706 2.84886C105.523 2.84886 105.377 2.95522 105.377 3.08804C105.377 3.22087 105.231 3.32723 105.048 3.32723C104.839 3.32723 104.719 3.43358 104.719 3.61887C104.719 3.81277 104.444 4.03569 103.897 4.28396C103.445 4.48934 103.075 4.75276 103.075 4.86932C103.075 4.98588 103.001 5.08124 102.911 5.08124C102.82 5.08124 102.746 5.19652 102.746 5.33748C102.746 5.5006 102.656 5.56008 102.498 5.50124C102.22 5.39792 101.431 5.69594 101.431 5.90419C101.431 5.97769 101.191 6.04371 100.897 6.05057C100.603 6.05742 100.455 6.09936 100.568 6.14353C100.681 6.18786 100.773 6.2974 100.773 6.38718C100.773 6.47695 100.65 6.50453 100.499 6.44825C100.348 6.39212 100.171 6.42911 100.107 6.53053C100.042 6.63194 99.6761 6.74069 99.2934 6.77226C98.8557 6.80814 98.4909 6.94878 98.3099 7.15129C98.1516 7.32828 97.9014 7.47307 97.7537 7.47307C97.6061 7.47307 97.4853 7.5807 97.4853 7.71225C97.4853 7.8438 97.4113 7.95143 97.3209 7.95143C97.2304 7.95143 97.1565 7.8438 97.1565 7.71225C97.1565 7.45202 96.889 7.38234 96.8002 7.61945C96.7152 7.84635 95.8412 7.62327 95.8412 7.37468C95.8412 7.05912 95.6234 7.10249 95.348 7.47307C95.067 7.85129 94.8548 7.88558 94.8548 7.55279C94.8548 7.22495 94.7011 7.25286 94.3512 7.64416C94.1018 7.92305 93.9994 7.94537 93.6946 7.78703C93.4164 7.64273 93.3053 7.64352 93.2117 7.79054C93.1203 7.93389 92.9515 7.91269 92.5339 7.70508C92.2279 7.55295 91.9297 7.35635 91.8708 7.26785C91.8115 7.17855 91.5011 7.14858 91.1721 7.2004C90.8453 7.2519 90.5802 7.22671 90.5802 7.14411C90.5802 7.06199 90.4323 6.9947 90.2514 6.9947C90.0706 6.9947 89.9226 6.91784 89.9226 6.82392C89.9226 6.56895 89.4314 6.14098 89.2982 6.28002C89.2347 6.34635 89.2754 6.43262 89.3883 6.47169C89.7349 6.59176 89.6333 7.15416 89.265 7.15416C89.0496 7.15416 88.9362 7.0478 88.9362 6.84593C88.9362 6.67643 88.792 6.49337 88.6158 6.43916C88.2766 6.33487 87.2921 5.50587 87.2921 5.32472C87.2921 5.05269 86.0752 4.28396 85.6445 4.28396C85.3757 4.28396 84.9905 3.8681 84.9905 3.57773C84.9905 3.43996 84.8981 3.32611 84.785 3.32484C84.6457 3.32308 84.6575 3.27445 84.8213 3.17399C85.1905 2.94756 84.9229 2.81123 83.9675 2.739C83.4903 2.70296 83.0751 2.60521 83.045 2.52198C83.0148 2.43858 82.7744 2.3705 82.5107 2.3705C82.247 2.3705 82.0312 2.29874 82.0312 2.21104C82.0312 1.98047 81.4137 2.01459 81.3329 2.24947C81.2423 2.51289 80.7159 2.01363 80.7159 1.66427C80.7159 1.49221 80.5615 1.41376 80.2227 1.41376C79.9107 1.41376 79.7295 1.4954 79.7295 1.63588C79.7295 1.9709 79.2448 2.08268 78.9657 1.81192C78.6669 1.52219 78.6173 1.51916 78.326 1.77254C77.6557 2.35567 77.5546 2.41004 77.4495 2.245C77.3389 2.07152 76.8116 1.9827 76.1537 2.02671C75.902 2.04361 75.7838 2.15348 75.7838 2.3705C75.7838 2.5459 75.7098 2.68941 75.6193 2.68941C75.5289 2.68941 75.4549 2.5459 75.4549 2.3705C75.4549 2.17102 75.3453 2.05158 75.1625 2.05158C75.0015 2.05158 74.7633 2.19509 74.6329 2.3705C74.4937 2.5577 74.2073 2.68941 73.939 2.68941C73.6878 2.68941 73.4821 2.75239 73.4821 2.82957C73.4821 2.90658 73.2601 3.05886 72.9889 3.16777C72.7176 3.27668 72.4956 3.46484 72.4956 3.5857C72.4956 3.85008 72.2198 3.8799 72.1321 3.62509C72.0892 3.50024 71.91 3.52479 71.5513 3.70482C71.2659 3.84801 70.8437 3.96505 70.6132 3.96505C70.3825 3.96505 70.194 4.03202 70.194 4.11382C70.194 4.19562 70.0465 4.30788 69.8661 4.36337C69.6858 4.41886 69.4201 4.57895 69.2758 4.71895C69.0781 4.91062 68.9828 4.92561 68.8901 4.78003C68.7934 4.62838 68.6721 4.62838 68.3294 4.77971C68.0891 4.88606 67.8923 5.01793 67.8923 5.07294C67.8923 5.12796 67.5964 5.1844 67.2347 5.19844C66.873 5.21231 66.5771 5.17005 66.5771 5.10436C66.5771 4.83552 65.3519 4.95622 65.0882 5.25106C64.9345 5.42295 64.6165 5.54621 64.3423 5.53999C64.0794 5.53409 63.7534 5.54748 63.6178 5.56965C63.4821 5.59165 62.9827 5.59851 62.508 5.5848C61.7631 5.56311 61.6449 5.51591 61.6449 5.24069C61.6449 4.90727 61.3858 4.79884 61.2855 5.09033C61.1908 5.36586 60.6585 5.07278 60.6585 4.74526C60.6585 4.57927 60.5845 4.44342 60.4941 4.44342C60.4036 4.44342 60.3297 4.50321 60.3297 4.57608C60.3297 4.7333 58.4763 4.61164 58.3568 4.4466C58.3116 4.3841 58.071 4.28476 57.8225 4.22576C57.4792 4.14428 57.3703 4.17665 57.3703 4.36066C57.3703 4.69743 57.2558 4.6657 56.7693 4.19387C56.5375 3.96903 56.2448 3.82553 56.1192 3.87496C55.9935 3.92455 55.7939 4.00332 55.6757 4.05004C55.5573 4.09692 55.2847 3.98737 55.0698 3.80655C54.8549 3.62589 54.4895 3.43199 54.2575 3.37586C54.0255 3.31957 53.6395 3.07035 53.3998 2.82207C53.1601 2.57364 52.8793 2.3705 52.7757 2.3705C52.6723 2.3705 52.4027 2.19111 52.1766 1.97186C51.9506 1.75261 51.59 1.57322 51.3755 1.57322C50.805 1.57322 50.4653 1.41217 50.4653 1.14173C50.4653 1.01098 50.2355 0.695736 49.9547 0.441245C49.4664 -0.00108426 49.1476 -0.0916547 48.698 0.0842246ZM49.6385 0.450812C50.0701 0.715508 49.6865 0.80831 49.2057 0.555574C48.8209 0.353384 48.7968 0.309694 49.0679 0.306346C49.2487 0.304273 49.5055 0.369171 49.6385 0.450812ZM49.4789 0.935397C49.4789 1.0231 49.4049 1.09485 49.3145 1.09485C49.2241 1.09485 49.1501 1.0231 49.1501 0.935397C49.1501 0.847696 49.2241 0.775942 49.3145 0.775942C49.4049 0.775942 49.4789 0.847696 49.4789 0.935397ZM19.5571 1.57322C19.5571 1.66092 19.4831 1.73267 19.3927 1.73267C19.3023 1.73267 19.2283 1.66092 19.2283 1.57322C19.2283 1.48552 19.3023 1.41376 19.3927 1.41376C19.4831 1.41376 19.5571 1.48552 19.5571 1.57322ZM51.1229 1.89213C51.1229 1.97983 51.049 2.05158 50.9585 2.05158C50.8681 2.05158 50.7941 1.97983 50.7941 1.89213C50.7941 1.80443 50.8681 1.73267 50.9585 1.73267C51.049 1.73267 51.1229 1.80443 51.1229 1.89213ZM16.269 4.04478C16.269 4.35173 16.343 4.60287 16.4334 4.60287C16.5238 4.60287 16.5978 4.81814 16.5978 5.08124C16.5978 5.34434 16.5238 5.5596 16.4334 5.5596C16.343 5.5596 16.269 5.70311 16.269 5.87851C16.269 6.05391 16.195 6.19742 16.1046 6.19742C16.0079 6.19742 15.9402 5.63933 15.9402 4.84205C15.9402 4.04478 16.0079 3.48668 16.1046 3.48668C16.195 3.48668 16.269 3.73783 16.269 4.04478ZM41.7929 4.23006C41.68 4.27439 41.495 4.27439 41.3819 4.23006C41.269 4.18589 41.3614 4.1497 41.5874 4.1497C41.8135 4.1497 41.9061 4.18589 41.7929 4.23006ZM15.6114 4.6826C15.6114 4.90185 15.5374 5.08124 15.447 5.08124C15.3566 5.08124 15.2826 4.90185 15.2826 4.6826C15.2826 4.46335 15.3566 4.28396 15.447 4.28396C15.5374 4.28396 15.6114 4.46335 15.6114 4.6826ZM41.1353 4.54897C41.0224 4.5933 40.8374 4.5933 40.7243 4.54897C40.6114 4.50481 40.7038 4.46861 40.9298 4.46861C41.1559 4.46861 41.2484 4.50481 41.1353 4.54897ZM14.7894 4.76233C14.9538 4.86533 14.9674 4.91764 14.8305 4.91939C14.7175 4.92067 14.625 5.02941 14.625 5.16096C14.625 5.29251 14.551 5.40015 14.4605 5.40015C14.3701 5.40015 14.2961 5.22076 14.2961 5.00151C14.2961 4.5721 14.403 4.52027 14.7894 4.76233ZM74.7973 4.76233C74.7973 4.85003 74.7233 4.92178 74.6329 4.92178C74.5425 4.92178 74.4685 4.85003 74.4685 4.76233C74.4685 4.67462 74.5425 4.60287 74.6329 4.60287C74.7233 4.60287 74.7973 4.67462 74.7973 4.76233ZM51.7806 5.16096C51.7806 5.29251 51.7066 5.40015 51.6162 5.40015C51.5257 5.40015 51.4518 5.29251 51.4518 5.16096C51.4518 5.02941 51.5257 4.92178 51.6162 4.92178C51.7066 4.92178 51.7806 5.02941 51.7806 5.16096ZM41.0355 5.32042C40.8999 5.45197 40.6541 5.55705 40.4894 5.55402C40.2492 5.5494 40.2712 5.50331 40.601 5.32042C41.1407 5.02128 41.344 5.02128 41.0355 5.32042ZM39.2858 5.40015C39.2858 5.48785 39.2118 5.5596 39.1214 5.5596C39.0309 5.5596 38.9569 5.48785 38.9569 5.40015C38.9569 5.31245 39.0309 5.24069 39.1214 5.24069C39.2118 5.24069 39.2858 5.31245 39.2858 5.40015ZM64.2754 5.71906C64.2754 5.80676 64.2014 5.87851 64.111 5.87851C64.0205 5.87851 63.9466 5.80676 63.9466 5.71906C63.9466 5.63136 64.0205 5.5596 64.111 5.5596C64.2014 5.5596 64.2754 5.63136 64.2754 5.71906ZM134.641 6.35688C134.641 6.44458 134.567 6.51633 134.476 6.51633C134.386 6.51633 134.312 6.44458 134.312 6.35688C134.312 6.26918 134.386 6.19742 134.476 6.19742C134.567 6.19742 134.641 6.26918 134.641 6.35688ZM11.9945 6.59606C11.9945 6.72761 11.9205 6.83525 11.8301 6.83525C11.7396 6.83525 11.6657 6.97876 11.6657 7.15416C11.6657 7.32956 11.5917 7.47307 11.5012 7.47307C11.2685 7.47307 11.2969 6.8657 11.5424 6.59542C11.812 6.29836 11.9945 6.29868 11.9945 6.59606ZM76.7702 7.07443C76.7702 7.20598 76.6962 7.31361 76.6058 7.31361C76.5154 7.31361 76.4414 7.20598 76.4414 7.07443C76.4414 6.94288 76.5154 6.83525 76.6058 6.83525C76.6962 6.83525 76.7702 6.94288 76.7702 7.07443ZM12.7208 7.09149C12.875 7.14889 12.9809 7.37596 12.9809 7.64958C12.9809 8.12125 12.7558 8.26955 12.5835 7.91157C12.5069 7.75211 12.4684 7.75211 12.3918 7.91157C12.2587 8.18806 11.9945 8.1616 11.9945 7.87171C11.9945 7.74015 12.0684 7.63252 12.1589 7.63252C12.2493 7.63252 12.3233 7.48901 12.3233 7.31361C12.3233 6.96249 12.3437 6.95117 12.7208 7.09149ZM150.095 7.63252C150.095 7.72022 150.021 7.79198 149.931 7.79198C149.84 7.79198 149.766 7.72022 149.766 7.63252C149.766 7.54482 149.84 7.47307 149.931 7.47307C150.021 7.47307 150.095 7.54482 150.095 7.63252ZM124.982 7.73808C124.869 7.78241 124.684 7.78241 124.571 7.73808C124.458 7.69391 124.55 7.65772 124.777 7.65772C125.003 7.65772 125.095 7.69391 124.982 7.73808ZM8.87076 8.58925C9.05572 8.70518 8.97352 8.74377 8.54195 8.74377C8.11039 8.74377 8.02819 8.70518 8.21314 8.58925C8.34878 8.50426 8.49674 8.43474 8.54195 8.43474C8.58716 8.43474 8.73513 8.50426 8.87076 8.58925ZM35.6688 8.90816C35.6688 8.99587 35.5949 9.06762 35.5044 9.06762C35.414 9.06762 35.34 8.99587 35.34 8.90816C35.34 8.82046 35.414 8.74871 35.5044 8.74871C35.5949 8.74871 35.6688 8.82046 35.6688 8.90816ZM143.848 9.14735C143.848 9.2789 143.774 9.38653 143.683 9.38653C143.593 9.38653 143.519 9.2789 143.519 9.14735C143.519 9.0158 143.593 8.90816 143.683 8.90816C143.774 8.90816 143.848 9.0158 143.848 9.14735ZM7.0623 9.70544C7.0623 9.88084 6.98832 10.0244 6.8979 10.0244C6.80748 10.0244 6.73349 9.88084 6.73349 9.70544C6.73349 9.53004 6.80748 9.38653 6.8979 9.38653C6.98832 9.38653 7.0623 9.53004 7.0623 9.70544ZM109.98 9.54599C109.98 9.63369 110.054 9.70544 110.144 9.70544C110.235 9.70544 110.309 9.63369 110.309 9.54599C110.309 9.45829 110.235 9.38653 110.144 9.38653C110.054 9.38653 109.98 9.45829 109.98 9.54599ZM143.848 9.8649C143.848 9.9526 143.774 10.0244 143.683 10.0244C143.593 10.0244 143.519 9.9526 143.519 9.8649C143.519 9.7772 143.593 9.70544 143.683 9.70544C143.774 9.70544 143.848 9.7772 143.848 9.8649ZM70.194 10.1838C70.194 10.2715 70.268 10.3433 70.3584 10.3433C70.4488 10.3433 70.5228 10.2715 70.5228 10.1838C70.5228 10.0961 70.4488 10.0244 70.3584 10.0244C70.268 10.0244 70.194 10.0961 70.194 10.1838ZM137.6 10.3433C137.6 10.431 137.526 10.5027 137.436 10.5027C137.345 10.5027 137.271 10.431 137.271 10.3433C137.271 10.2556 137.345 10.1838 137.436 10.1838C137.526 10.1838 137.6 10.2556 137.6 10.3433ZM6.73349 10.5027C6.73349 10.5904 6.65951 10.6622 6.56909 10.6622C6.47867 10.6622 6.40468 10.5904 6.40468 10.5027C6.40468 10.415 6.47867 10.3433 6.56909 10.3433C6.65951 10.3433 6.73349 10.415 6.73349 10.5027ZM34.3536 10.5027C34.3536 10.5904 34.2796 10.6622 34.1892 10.6622C34.0988 10.6622 34.0248 10.5904 34.0248 10.5027C34.0248 10.415 34.0988 10.3433 34.1892 10.3433C34.2796 10.3433 34.3536 10.415 34.3536 10.5027ZM3.7742 11.5392C3.7742 11.6707 3.70021 11.7784 3.60979 11.7784C3.51937 11.7784 3.44539 11.6707 3.44539 11.5392C3.44539 11.4076 3.51937 11.3 3.60979 11.3C3.70021 11.3 3.7742 11.4076 3.7742 11.5392ZM32.0519 11.6189C32.0519 11.7943 31.9779 11.9378 31.8875 11.9378C31.7971 11.9378 31.7231 11.7943 31.7231 11.6189C31.7231 11.4435 31.7971 11.3 31.8875 11.3C31.9779 11.3 32.0519 11.4435 32.0519 11.6189ZM33.0384 12.4162C33.0384 12.5039 32.9644 12.5756 32.874 12.5756C32.7835 12.5756 32.7095 12.5039 32.7095 12.4162C32.7095 12.3285 32.7835 12.2567 32.874 12.2567C32.9644 12.2567 33.0384 12.3285 33.0384 12.4162ZM114.583 12.4162C114.583 12.5039 114.509 12.5756 114.419 12.5756C114.329 12.5756 114.255 12.5039 114.255 12.4162C114.255 12.3285 114.329 12.2567 114.419 12.2567C114.509 12.2567 114.583 12.3285 114.583 12.4162ZM2.45895 12.8016C2.45895 13.0135 2.55151 13.2189 2.66446 13.2581C2.77757 13.2972 2.81801 13.3834 2.75455 13.4498C2.58078 13.6312 2.13014 13.1235 2.13014 12.7464C2.13014 12.5648 2.20413 12.4162 2.29455 12.4162C2.38497 12.4162 2.45895 12.5897 2.45895 12.8016ZM6.07587 12.961C6.07587 13.173 5.98348 13.3825 5.87037 13.4268C5.75742 13.471 5.8314 13.5129 6.03477 13.5198C6.33909 13.5301 6.40468 13.4475 6.40468 13.054C6.40468 12.7909 6.3307 12.5756 6.24028 12.5756C6.14985 12.5756 6.07587 12.7491 6.07587 12.961ZM35.34 13.054C35.34 13.2294 35.266 13.3729 35.1756 13.3729C35.0852 13.3729 35.0112 13.2294 35.0112 13.054C35.0112 12.8786 35.0852 12.7351 35.1756 12.7351C35.266 12.7351 35.34 12.8786 35.34 13.054ZM91.69 12.8407C91.8031 12.885 91.988 12.885 92.101 12.8407C92.2141 12.7965 92.1215 12.7603 91.8955 12.7603C91.6694 12.7603 91.577 12.7965 91.69 12.8407Z" fill="#FFD670"/>
</svg>
